<?xml version="1.0" encoding="UTF-8" standalone="no"?>
<!-- Created with Inkscape (http://www.inkscape.org/) -->

<svg
   width="120"
   height="120"
   viewBox="0 0 120 120"
   version="1.1"
   id="svg5"
   xml:space="preserve"
   inkscape:version="1.2.2 (b0a8486541, 2022-12-01)"
   sodipodi:docname="patchy.svg"
   xmlns:inkscape="http://www.inkscape.org/namespaces/inkscape"
   xmlns:sodipodi="http://sodipodi.sourceforge.net/DTD/sodipodi-0.dtd"
   xmlns:xlink="http://www.w3.org/1999/xlink"
   xmlns="http://www.w3.org/2000/svg"
   xmlns:svg="http://www.w3.org/2000/svg"><sodipodi:namedview
     id="namedview7"
     pagecolor="#ffffff"
     bordercolor="#000000"
     borderopacity="0.25"
     inkscape:showpageshadow="2"
     inkscape:pageopacity="0.0"
     inkscape:pagecheckerboard="0"
     inkscape:deskcolor="#d1d1d1"
     inkscape:document-units="px"
     showgrid="false"
     inkscape:zoom="2.0713333"
     inkscape:cx="-5.3105891"
     inkscape:cy="88.107501"
     inkscape:window-width="1362"
     inkscape:window-height="706"
     inkscape:window-x="0"
     inkscape:window-y="0"
     inkscape:window-maximized="1"
     inkscape:current-layer="g463" /><defs
     id="defs2"><clipPath
       clipPathUnits="userSpaceOnUse"
       id="clipPath2445"><rect
         style="fill:#28c6ff;fill-opacity:1"
         id="rect2447"
         width="69.991844"
         height="67.667641"
         x="26.12044"
         y="12.6919"
         ry="11.030558" /></clipPath><linearGradient
       inkscape:collect="always"
       id="linearGradient2469"><stop
         style="stop-color:#25df77;stop-opacity:1;"
         offset="0"
         id="stop2465" /><stop
         style="stop-color:#20e49c;stop-opacity:1;"
         offset="1"
         id="stop2467" /></linearGradient><linearGradient
       inkscape:collect="always"
       id="linearGradient1426"><stop
         style="stop-color:#4f74b5;stop-opacity:1;"
         offset="0"
         id="stop1422" /><stop
         style="stop-color:#559c00;stop-opacity:1;"
         offset="1"
         id="stop1424" /></linearGradient><linearGradient
       inkscape:collect="always"
       xlink:href="#linearGradient1426"
       id="linearGradient2259"
       gradientUnits="userSpaceOnUse"
       gradientTransform="translate(-180.76606,60.00355)"
       x1="62.917969"
       y1="641.00977"
       x2="236.08203"
       y2="641.00977" /><linearGradient
       inkscape:collect="always"
       xlink:href="#linearGradient1426"
       id="linearGradient2289"
       gradientUnits="userSpaceOnUse"
       gradientTransform="rotate(-113.02833,156.9704,762.84242)"
       x1="62.917969"
       y1="641.00977"
       x2="236.08203"
       y2="641.00977" /><linearGradient
       inkscape:collect="always"
       xlink:href="#linearGradient2469"
       id="linearGradient2957"
       gradientUnits="userSpaceOnUse"
       x1="78.609375"
       y1="482.77344"
       x2="220.3898"
       y2="482.77344" /><linearGradient
       id="swatch6"
       inkscape:swatch="solid"><stop
         style="stop-color:#000000;stop-opacity:1;"
         offset="0"
         id="stop6" /></linearGradient></defs><g
     inkscape:label="Capa 1"
     inkscape:groupmode="layer"
     id="layer1"><g
       paint-order="stroke markers fill"
       transform="matrix(6.5417587,0,0,7.1035102,3.4736863,-1987.2738)"
       id="g463"><rect
         width="13.229"
         height="14.287"
         x="2.0673413"
         y="281.12463"
         fill="#549bff"
         stroke="#0b48a9"
         stroke-width="0.529"
         opacity="0.75"
         ry="0.57099998"
         id="rect447"
         style="fill:#e5ff54;fill-opacity:1;stroke:#80a90b;stroke-opacity:1" /><g
         stroke-width="0.961"
         transform="matrix(1.04167,0,0,1.08,-0.13765884,-23.347383)"
         id="g455"><rect
           width="12.7"
           height="13.229"
           x="2.1170001"
           y="281.91901"
           fill="#549bff"
           ry="0.52899998"
           id="rect449"
           style="fill:#ccff54;fill-opacity:1" /><path
           fill="#0000ff"
           d="m 2.646,281.919 a 0.53,0.53 0 0 0 -0.53,0.529 v 5.045 a 9.26,9.26 0 0 0 8.467,5.538 9.26,9.26 0 0 0 4.234,-1.027 v -9.556 a 0.53,0.53 0 0 0 -0.53,-0.53 z"
           opacity="0.1"
           id="path451" /><path
           fill="#0000ff"
           d="m 2.646,281.919 a 0.53,0.53 0 0 0 -0.53,0.529 v 12.17 c 0,0.294 0.237,0.53 0.53,0.53 h 5.909 a 10.58,10.58 0 0 0 6.262,-5.472 v -7.228 a 0.53,0.53 0 0 0 -0.53,-0.53 z"
           opacity="0.1"
           id="path453"
           style="fill:none;fill-opacity:1" /></g><path
         fill="#ffffff"
         d="m 4.9118573,280.85087 a 3.941075,3.3377948 0 0 0 3.941075,3.33779 3.941075,3.3377948 0 0 0 3.9410757,-3.33779 h -0.985579 a 2.9542546,2.502032 0 0 1 -2.9554967,2.50414 2.9542546,2.502032 0 0 1 -2.9567372,-2.50414 z"
         id="path457"
         style="stroke-width:1.14233;fill:#657c00;fill-opacity:1" /><g
         inkscape:label="Capa 1"
         id="layer1-5"
         transform="matrix(0.01775228,0,0,0.01775228,-37.490315,287.88612)"><g
           inkscape:label="Capa 1"
           id="g1217"
           transform="matrix(4.2595232,0,0,3.7910984,-2833.4593,-7670.3943)"
           inkscape:export-filename="./g1217.svg"
           inkscape:export-xdpi="8.5328121"
           inkscape:export-ydpi="8.5328121"><path
             style="fill:#728b17;fill-opacity:1;fill-rule:nonzero;stroke:none;stroke-width:0.922917"
             d="m 1247.6811,2047.2281 c 0,2.9129 -2.3613,5.2779 -5.2779,5.2779 -2.9165,0 -5.2816,-2.365 -5.2816,-5.2779 0,-2.9166 2.3651,-5.2816 5.2816,-5.2816 2.9166,0 5.2779,2.365 5.2779,5.2816"
             id="path1185"
             inkscape:export-filename="cuerd.svg"
             inkscape:export-xdpi="8.5328121"
             inkscape:export-ydpi="8.5328121" /><path
             style="fill:#728b17;fill-opacity:1;fill-rule:nonzero;stroke:none;stroke-width:0.922917"
             d="m 1226.5586,1999.7196 c -10.5595,0 -10.5595,10.5594 -10.5595,10.5594 v 21.1117 c 0,0 0,10.5594 10.5595,10.5594 z m 0,0"
             id="path1187" /><path
             style="fill:#ffffff;fill-opacity:1;fill-rule:nonzero;stroke:none;stroke-width:0.922917"
             d="m 1226.5586,1999.7196 h 85.2652 c 2.2711,0 4.456,0.8904 6.0818,2.4803 l 3.7061,3.6268 0.7247,-5.7538 c 0.3461,-4.849 3.6375,-8.984 8.2881,-10.408 l 9.5825,-2.9311 c 1.8134,-0.5551 3.8178,-0.012 5.0111,1.4674 0.2812,0.3533 0.4795,0.6885 0.5011,0.9625 4.7336,59.4271 -76.912,52.7864 -119.1606,52.7864 z m 0,0"
             id="path1189" /><path
             style="fill:#728b17;fill-opacity:1;fill-rule:nonzero;stroke:none;stroke-width:0.922917"
             d="m 1289.9297,1999.7196 c -8.2089,-1.0132 -11.0785,-10.5559 -31.6855,-10.5559 -20.607,0 -21.1226,10.5559 -21.1226,10.5559 z m 0,0"
             id="path1191" /><path
             style="fill:#728b17;fill-opacity:1;fill-rule:nonzero;stroke:none;stroke-width:0.922917"
             d="m 1213.2521,2015.456 h 2.747 v 10.7577 h -2.747 z m 0,0"
             id="path1193" /><path
             style="fill:#728b17;fill-opacity:1;fill-rule:nonzero;stroke:none;stroke-width:0.922917"
             d="m 1211.8821,2041.9465 c 0.757,0 1.3736,-0.6128 1.3736,-1.3699 v -39.4834 c 0,-0.7572 -0.6166,-1.3736 -1.3736,-1.3736 -0.7571,0 -1.3736,0.6164 -1.3736,1.3736 v 39.4834 c 0,0.7571 0.6165,1.3699 1.3736,1.3699"
             id="path1195" /><path
             style="fill:#728b17;fill-opacity:1;fill-rule:nonzero;stroke:none;stroke-width:0.922917"
             d="m 1284.6482,2031.3907 h -42.245 c -2.9165,0 -5.2816,-2.3613 -5.2816,-5.278 0,-2.9164 2.3651,-5.2779 5.2816,-5.2779 h 42.245 c 2.9166,0 5.2815,2.3615 5.2815,5.2779 0,2.9167 -2.3649,5.278 -5.2815,5.278"
             id="path1197" /><path
             style="fill:#728b17;fill-opacity:1;fill-rule:nonzero;stroke:none;stroke-width:0.922917"
             d="m 1210.5085,2001.0932 h 2.7436 v 3.1652 h -2.7436 z m 0,0"
             id="path1199" /><path
             style="fill:#728b17;fill-opacity:1;fill-rule:nonzero;stroke:none;stroke-width:0.922917"
             d="m 1210.5085,2037.4112 h 2.7436 v 3.1654 h -2.7436 z m 0,0"
             id="path1201" /></g><rect
           style="fill:none;stroke:#000000;stroke-width:0.264583;stroke-opacity:0"
           id="rect798"
           width="653.92346"
           height="34.265957"
           x="2245.6624"
           y="235.07547" /><rect
           style="fill:none;stroke:#000000;stroke-width:0.264583;stroke-opacity:0"
           id="rect964"
           width="463.76151"
           height="49.636105"
           x="2245.6624"
           y="235.07547" /></g><rect
         width="1.9181702"
         height="3.9088678"
         x="10.928787"
         y="287.23065"
         fill="#ffffff"
         ry="0"
         id="rect459"
         style="fill:#637617;fill-opacity:1;stroke-width:1.33625" /><path
         fill="#ffffff"
         d="m 9.329707,291.13949 h 5.116329 l -2.557561,3.12592 z"
         id="path461"
         style="fill:#637617;fill-opacity:1;stroke-width:1.33625" /></g><g
       id="g628"
       transform="matrix(1.2445364,0,0,1.1939836,291.53111,-225.55676)"
       inkscape:export-filename="settings_about.svg"
       inkscape:export-xdpi="218.6778"
       inkscape:export-ydpi="218.6778"
       style="fill:#ffffff;fill-opacity:1;stroke:none"><g
         id="g2152"
         transform="matrix(0.56443746,0,0,0.56443746,63.658911,-354.11496)"
         style="fill:#ffffff;fill-opacity:1;stroke:none" /></g></g></svg>
