<?xml version="1.0" encoding="UTF-8" standalone="no"?>
<svg
   viewBox="0 0 150 150"
   width="150"
   height="150"
   version="1.1"
   id="svg3122"
   sodipodi:docname="8bb48ee8-786f-4110-8848-63b9bfe303b4(1).svg"
   xml:space="preserve"
   inkscape:export-filename="../Escritorio/debbie.svg"
   inkscape:export-xdpi="96"
   inkscape:export-ydpi="96"
   xmlns:inkscape="http://www.inkscape.org/namespaces/inkscape"
   xmlns:sodipodi="http://sodipodi.sourceforge.net/DTD/sodipodi-0.dtd"
   xmlns="http://www.w3.org/2000/svg"
   xmlns:svg="http://www.w3.org/2000/svg"><defs
     id="defs3126"><linearGradient
       id="b"
       gradientUnits="userSpaceOnUse"
       x1="399.9939"
       x2="399.9939"
       y1="545.13873"
       y2="518.13873"
       gradientTransform="matrix(4.5104992,0,0,4.5104992,-1737.1136,-2329.0146)"><stop
         offset="0"
         stop-color="#ec396c"
         id="stop8745"
         style="stop-color:#3e990f;stop-opacity:1;" /><stop
         offset="1"
         stop-color="#ff709a"
         id="stop8747"
         style="stop-color:#e6fc00;stop-opacity:1;" /></linearGradient><linearGradient
       id="c"
       gradientUnits="userSpaceOnUse"
       x1="70.337624"
       x2="69.495491"
       y1="81.70163"
       y2="16.72187"
       gradientTransform="matrix(1.2539465,0,0,1.2539466,21.484243,41.055661)"><stop
         offset="0"
         stop-color="#b6b9bf"
         id="stop8750"
         style="stop-color:#84ff76;stop-opacity:1;" /><stop
         offset="1"
         stop-color="#dddfe2"
         id="stop8752"
         style="stop-color:#00c108;stop-opacity:1;" /></linearGradient><linearGradient
       id="swatch6"
       inkscape:swatch="solid"><stop
         style="stop-color:#000000;stop-opacity:1;"
         offset="0"
         id="stop6" /></linearGradient></defs><sodipodi:namedview
     id="namedview3124"
     pagecolor="#ffffff"
     bordercolor="#000000"
     borderopacity="0.25"
     inkscape:showpageshadow="2"
     inkscape:pageopacity="0.0"
     inkscape:pagecheckerboard="0"
     inkscape:deskcolor="#d1d1d1"
     showgrid="false"
     showguides="true"><sodipodi:guide
       position="64.842747,91.573983"
       orientation="0,-1"
       id="guide11715"
       inkscape:locked="false" /></sodipodi:namedview><circle
     cx="69.663254"
     cy="69.659393"
     fill="url(#b)"
     r="63.146801"
     id="circle8755"
     style="fill:url(#b);stroke-width:4.5105" /><g
     fill="#a80030"
     id="g9981"
     transform="matrix(0.31251582,0,0,0.31251582,25.640263,22.246852)"
     style="fill:#ffffff;fill-opacity:1"><path
       d="m 152.79662,167.42537 c -5.25095,0.0731 0.9935,2.70583 7.84865,3.76069 1.8935,-1.47856 3.61167,-2.97466 5.14283,-4.42984 -4.26913,1.04609 -8.61424,1.06947 -12.99148,0.66915"
       id="path9957"
       style="fill:#ffffff;fill-opacity:1" /><path
       d="m 180.9799,160.40073 c 3.12661,-4.31588 5.40581,-9.04086 6.20938,-13.92654 -0.70129,3.4831 -2.59187,6.4899 -4.3714,9.66326 -9.81521,6.18016 -0.92337,-3.67011 -0.006,-7.41328 -10.55448,13.2837 -1.44934,7.96554 -1.83213,11.67656"
       id="path9959"
       style="fill:#ffffff;fill-opacity:1" /><path
       d="m 191.38244,133.33075 c 0.63409,-9.45579 -1.86135,-6.46652 -2.69999,-2.85777 0.9789,0.50844 1.75324,6.66522 2.69999,2.85777"
       id="path9961"
       style="fill:#ffffff;fill-opacity:1" /><path
       d="m 132.88569,4.0879643 c 2.80225,0.5025946 6.05451,0.8883068 5.59867,1.5574589 3.06524,-0.6720742 3.76069,-1.2915513 -5.59867,-1.5574589"
       id="path9963"
       style="fill:#ffffff;fill-opacity:1" /><path
       d="m 138.48436,5.6454232 -1.98116,0.4090887 1.84382,-0.1636355 0.13734,-0.2454532"
       id="path9965"
       style="fill:#ffffff;fill-opacity:1" /><path
       d="m 225.86569,136.91612 c 0.31266,8.49151 -2.48375,12.61162 -5.00549,19.90509 l -4.53796,2.26752 c -3.71394,7.21165 0.35941,4.57887 -2.29967,10.31487 -5.79737,5.15452 -17.59373,16.12979 -21.36903,17.13205 -2.75551,-0.0614 1.86719,-3.25225 2.47206,-4.50289 -7.76099,5.32984 -6.22691,8.0006 -18.09633,11.23824 l -0.34772,-0.77142 c -29.27322,13.77168 -69.93663,-13.52038 -69.40189,-50.75913 -0.31266,2.36394 -0.88831,1.77369 -1.537,2.7292 -1.51071,-19.15996 8.848,-38.40465 26.31901,-46.262078 17.08821,-8.459369 37.12187,-4.987959 49.36238,6.419768 -6.72366,-8.807092 -20.1067,-18.14308 -35.96765,-17.269383 -15.53661,0.245453 -30.07094,10.1191 -34.92156,20.837223 -7.9597,5.01133 -8.88307,19.31775 -12.351558,21.93592 -4.666532,34.29623 8.777878,49.11401 31.520278,66.54411 3.57953,2.41362 1.00811,2.77888 1.49318,4.61685 -7.55646,-3.53861 -14.4759,-8.88014 -20.16515,-15.41972 3.01849,4.41816 6.27659,8.71359 10.48728,12.08857 -7.12399,-2.41362 -16.64115,-17.26354 -19.42003,-17.8684 12.28143,21.98851 49.827,38.56245 69.48663,30.33976 -9.09638,0.33604 -20.65313,0.18702 -30.8745,-3.59121 -4.29251,-2.20908 -10.13079,-6.78503 -9.08761,-7.64119 26.83037,10.02267 54.54612,7.59151 77.7619,-11.0191 5.90549,-4.59932 12.3574,-12.4246 14.22168,-12.53272 -2.8081,4.22238 0.47921,2.03083 -1.67727,5.75938 5.88504,-9.49085 -2.5568,-3.86296 6.08374,-16.38984 l 3.19089,4.39478 c -1.18636,-7.87788 9.78306,-17.44471 8.66975,-29.90438 2.5159,-3.81037 2.80811,4.09965 0.13734,12.86584 3.70517,-9.72462 0.97597,-11.28793 1.92856,-19.31191 1.02857,2.69707 2.37856,5.56361 3.07109,8.4097 -2.41362,-9.39735 2.47791,-15.82589 3.68764,-21.28722 -1.1922,-0.52889 -3.72563,4.15517 -4.3042,-6.94574 0.0847,-4.8214 1.34123,-2.52759 1.82629,-3.71394 -0.94675,-0.54351 -3.4305,-4.23991 -4.9412,-11.328836 1.09577,-1.665575 2.9279,4.318806 4.41815,4.564256 -0.95843,-5.636653 -2.6094,-9.935006 -2.67661,-14.259657 -4.35387,-9.0993 -1.53992,1.212656 -5.07269,-3.906796 -4.63439,-14.45544 3.84543,-3.354527 4.41815,-9.923322 7.02464,10.177541 11.03079,25.950835 12.86876,32.484565 -1.40259,-7.965545 -3.67011,-15.68271 -6.4373,-23.148578 2.13311,0.897073 -3.43634,-16.389844 2.77304,-4.941206 -6.63308,-24.40506 -28.38783,-47.208829 -48.40103,-57.909419 2.44869,2.241221 5.54023,5.055166 4.42984,5.496398 -9.95254,-5.925941 -8.20223,-6.387627 -9.62819,-8.891834 -8.10872,-3.299008 -8.64054,0.265908 -14.01129,0.0058 -15.28238,-8.105755 -18.22782,-7.243747 -32.2917,-12.32229 l 0.63993,2.9892691 c -10.12494,-3.3720592 -11.79636,1.279863 -22.73948,0.011688 -0.66623,-0.520127 3.50647,-1.8818077 6.93989,-2.3814803 -9.7889,1.2915513 -9.33014,-1.9285607 -18.90866,0.3564916 2.36103,-1.656809 4.85647,-2.7525822 7.37529,-4.1610159 -7.98308,0.4850622 -19.05769,4.6460781 -15.63888,0.8620082 C 96.316085,8.9298206 73.190888,17.085295 60.214012,29.25276 L 59.804924,26.526476 C 53.858528,33.665073 33.874548,47.845838 32.282025,57.091242 l -1.589602,0.371102 C 27.59796,62.7016 25.596347,68.63923 23.141816,74.030433 19.09476,80.926499 17.21003,76.683665 17.785676,77.764828 9.8259803,93.903375 5.8724309,107.46466 2.4565407,118.58603 4.8906182,122.224 2.514982,140.48688 3.4354314,155.10304 -0.56194899,227.28965 54.098137,297.37822 113.84553,313.5606 c 8.75742,3.13245 21.78105,3.01264 32.85859,3.33407 -13.07039,-3.73732 -14.75934,-1.98116 -27.49076,-6.41977 -9.18404,-4.32465 -11.19734,-9.26293 -17.70185,-14.90836 l 2.57434,4.54965 c -12.757724,-4.51458 -7.419118,-5.58698 -17.798281,-8.8743 l 2.74966,-3.59121 c -4.134717,-0.31266 -10.951887,-6.96912 -12.816162,-10.65384 l -4.523352,0.17825 C 66.26268,270.46895 63.366917,265.63586 63.577306,261.8927 l -1.461031,2.60356 c -1.656809,-2.84317 -19.995669,-25.15019 -10.481436,-19.95768 -1.767847,-1.6159 -4.117185,-2.62986 -6.665222,-7.2584 l 1.937326,-2.21493 c -4.57887,-5.89087 -8.427226,-13.44148 -8.135019,-15.95737 2.442843,3.299 4.137639,3.91556 5.814902,4.47952 -11.562598,-28.68881 -12.211295,-1.58084 -20.968714,-29.20309 l 1.852587,-0.14902 c -1.420122,-2.13895 -2.28213,-4.46199 -3.424657,-6.7412 l 0.80649,-8.03567 c -8.324954,-9.62527 -2.328884,-40.9264 -1.127916,-58.09351 0.832787,-6.9808 6.948662,-14.41161 11.600585,-26.064789 l -2.8344,-0.487985 c 5.417502,-9.449947 30.932945,-37.951737 42.749763,-36.484862 5.724319,-7.191194 -1.136683,-0.0263 -2.255832,-1.837977 12.573631,-13.011941 16.527181,-9.192806 25.012848,-11.533378 9.1519,-5.432112 -7.854502,2.118495 -3.51524,-2.071741 15.82004,-4.041212 11.21195,-9.186962 31.85047,-11.23825 2.17694,1.238955 -5.05224,1.913951 -6.86684,3.521085 13.18142,-6.448991 41.71243,-4.982116 60.24414,3.579525 21.50346,10.04897 45.66306,39.75465 46.61565,67.704172 l 1.08409,0.2922 c -0.54935,11.10968 1.70064,23.95799 -2.19739,35.76019 l 2.65323,-5.58698"
       id="path9967"
       style="fill:#ffffff;fill-opacity:1" /><path
       d="m 95.483297,174.6341 -0.736359,3.68179 c 3.450955,4.68699 6.188932,9.76553 10.595392,13.4298 -3.17043,-6.18893 -5.525615,-8.74573 -9.859033,-17.11159"
       id="path9969"
       style="fill:#ffffff;fill-opacity:1" /><path
       d="m 103.64169,174.31267 c -1.82629,-2.01915 -2.90745,-4.4503 -4.117181,-6.87269 1.157141,4.25744 3.526931,7.91586 5.733081,11.63565 l -1.6159,-4.76296"
       id="path9971"
       style="fill:#ffffff;fill-opacity:1" /><path
       d="m 248.00323,142.93557 -0.77142,1.9344 c -1.41428,10.04605 -4.46784,19.98691 -9.14898,29.20309 5.17205,-9.72462 8.51781,-20.36093 9.9204,-31.13749"
       id="path9973"
       style="fill:#ffffff;fill-opacity:1" /><path
       d="M 133.92302,1.5691471 C 137.47332,0.26882968 142.65122,0.85616408 146.41775,0 141.50869,0.4120107 136.623,0.65746388 131.79868,1.279863 l 2.12434,0.2892841"
       id="path9975"
       style="fill:#ffffff;fill-opacity:1" /><path
       d="m 9.2824769,67.847351 c 0.8181771,7.573984 -5.6980203,10.513578 1.4434981,5.519774 3.827901,-8.623004 -1.4960952,-2.38148 -1.4434981,-5.519774"
       id="path9977"
       style="fill:#ffffff;fill-opacity:1" /><path
       d="M 0.89031567,102.9004 C 2.5354364,97.85108 2.8334867,94.81798 3.46173,91.895919 -1.084998,97.707899 1.3695338,98.946854 0.89031567,102.9004"
       id="path9979"
       style="fill:#ffffff;fill-opacity:1" /></g><g
     fill="#a0a3a8"
     fill-rule="evenodd"
     transform="matrix(0.02033572,0,0,0.01754372,14.792638,146.5204)"
     id="g8767"
     style="fill:#11a200;fill-opacity:1"><path
       d="m 3002.1818,-2197.0995 39.3048,-129.1575 c 14.1356,-55.5677 27.6067,-44.3228 83.7808,-44.3228 h 1023.7081 l 205.7436,238.2305 -1282.836,10.121 c -84.7668,1.0471 -98.712,20.4591 -69.7013,-74.8712 z"
       id="path8759"
       style="fill:#11a200;fill-opacity:1" /><path
       d="m 6383.4495,-2185.7915 -34.2791,-112.6428 c -15.6733,-76.792 -25.9295,-72.1455 -99.058,-72.1455 H 5233.2146 l -205.7436,238.2304 1274.6062,10.0561 c 77.2452,-3.1881 109.8966,30.2339 81.3723,-63.4982 z"
       id="path8761"
       style="fill:#11a200;fill-opacity:1" /><path
       d="m 3963.8055,-4807.7305 34.554,-106.6029 c 15.6733,-76.792 25.9295,-72.1455 99.058,-72.1455 l 1016.8978,0.036 205.7436,238.2276 -1318.0111,-3e-4 c -61.5899,3.1273 -58.9883,4.4886 -38.2423,-59.5149 z"
       id="path8763"
       style="fill:#11a200;fill-opacity:1" /><path
       d="m 5444.5468,-4805.8007 -34.554,-106.6029 c -15.6733,-76.792 -25.9295,-72.1455 -99.058,-72.1455 l -1016.8978,0.036 -205.7436,238.2276 1318.0111,-3e-4 c 61.5899,3.1273 58.9883,4.4886 38.2423,-59.5149 z"
       id="path8765"
       style="fill:#11a200;fill-opacity:1" /></g><path
     d="M 108.30418,144.31777 77.193544,112.36152 c 0,0 -4.614609,-4.75783 1.026749,-4.75783 H 95.123746 V 102.0658 64.551514 c -0.110091,-2.227355 0.01147,-2.414481 2.179076,-2.403248 h 26.336618 c 1.87277,-0.207929 2.3099,0.06194 2.30886,2.045345 v 37.601469 5.80858 l 16.18145,-5e-5 c 5.21421,0 1.53826,3.9779 1.53826,3.9779 0,0 -26.46891,29.86868 -30.16072,33.00232 -2.65554,2.27117 -5.20311,-0.26602 -5.20311,-0.26602 z"
     fill="url(#c)"
     id="path8769"
     style="fill:url(#c);stroke-width:1.25395" /><path
     style="fill:#368d00;fill-opacity:1;fill-rule:nonzero;stroke:none;stroke-width:0.279968"
     d="m 104.45987,127.25031 c 0,0.88917 -0.71185,1.61109 -1.5911,1.61109 -0.87922,0 -1.59221,-0.72192 -1.59221,-1.61109 0,-0.8903 0.71299,-1.61222 1.59221,-1.61222 0.87925,0 1.5911,0.72192 1.5911,1.61222"
     id="path1185"
     inkscape:export-filename="cuerd.svg"
     inkscape:export-xdpi="8.5328121"
     inkscape:export-ydpi="8.5328121" /><path
     style="fill:#368d00;fill-opacity:1;fill-rule:nonzero;stroke:none;stroke-width:0.279968"
     d="m 98.092224,112.7482 c -3.183313,0 -3.183313,3.22329 -3.183313,3.22329 v 6.44441 c 0,0 0,3.22329 3.183313,3.22329 z m 0,0"
     id="path1187" /><path
     style="fill:#ffffff;fill-opacity:1;fill-rule:nonzero;stroke:none;stroke-width:0.279968"
     d="M 98.092224,112.7482 H 123.7965 c 0.68466,0 1.34335,0.2718 1.83346,0.75713 l 1.11723,1.10708 0.21847,-1.75636 c 0.10439,-1.48017 1.09657,-2.74239 2.49857,-3.17707 l 2.88875,-0.89473 c 0.54669,-0.16944 1.15094,-0.004 1.51067,0.44793 0.0848,0.10785 0.14454,0.21017 0.15106,0.29381 1.42701,18.14029 -23.1861,16.1132 -35.922486,16.1132 z m 0,0"
     id="path1189" /><path
     style="fill:#368d00;fill-opacity:1;fill-rule:nonzero;stroke:none;stroke-width:0.279968"
     d="m 117.19626,112.7482 c -2.4747,-0.30928 -3.33977,-3.22221 -9.55202,-3.22221 -6.21224,0 -6.36768,3.22221 -6.36768,3.22221 z m 0,0"
     id="path1191" /><path
     style="fill:#368d00;fill-opacity:1;fill-rule:nonzero;stroke:none;stroke-width:0.279968"
     d="m 94.08079,117.55179 h 0.828121 v 3.28382 H 94.08079 Z m 0,0"
     id="path1193" /><path
     style="fill:#368d00;fill-opacity:1;fill-rule:nonzero;stroke:none;stroke-width:0.279968"
     d="m 93.667785,125.63809 c 0.228213,0 0.41409,-0.18706 0.41409,-0.41817 V 113.1675 c 0,-0.23114 -0.185877,-0.4193 -0.41409,-0.4193 -0.228238,0 -0.414088,0.18816 -0.414088,0.4193 v 12.05242 c 0,0.23111 0.18585,0.41817 0.414088,0.41817"
     id="path1195" /><path
     style="fill:#368d00;fill-opacity:1;fill-rule:nonzero;stroke:none;stroke-width:0.279968"
     d="m 115.60408,122.4159 h -12.73531 c -0.87922,0 -1.59221,-0.72079 -1.59221,-1.61112 0,-0.89024 0.71299,-1.6111 1.59221,-1.6111 h 12.73531 c 0.87923,0 1.59218,0.72086 1.59218,1.6111 0,0.89033 -0.71295,1.61112 -1.59218,1.61112"
     id="path1197" /><path
     style="fill:#75ff1f;fill-opacity:1;fill-rule:nonzero;stroke:none;stroke-width:0.279968"
     d="m 93.253697,113.1675 h 0.827093 v 0.96619 h -0.827093 z m 0,0"
     id="path1199" /><path
     style="fill:#75ff1f;fill-opacity:1;fill-rule:nonzero;stroke:none;stroke-width:0.279968"
     d="m 93.253697,124.25368 h 0.827093 v 0.96624 h -0.827093 z m 0,0"
     id="path1201" /><rect
     style="fill:none;stroke:#000000;stroke-width:0.0273352;stroke-opacity:0"
     id="rect964"
     width="47.224503"
     height="5.2028909"
     x="88.133476"
     y="117.21303" /></svg>
